<svg width="511" height="532" viewBox="0 0 511 532" fill="none" xmlns="http://www.w3.org/2000/svg">
<path d="M0.368111 0H0V0.40351H0.601942L0.368111 0Z" fill="white"/>
<path d="M0.432935 0H0V0.751363L0.432935 0Z" fill="white"/>
<path d="M102.569 0H0V0.40351H102.8L102.569 0Z" fill="white"/>
<path d="M68.068 0H67.862L67.9152 0.0904419L68.068 0Z" fill="white"/>
<path d="M102.633 0H101.768L102.2 0.751363L102.633 0Z" fill="white"/>
<path d="M205.001 0.40351L204.769 0H101.83L101.599 0.40351H205.001Z" fill="white"/>
<path d="M170.269 0H170.062L170.113 0.0904419L170.269 0Z" fill="white"/>
<path d="M204.832 0H203.966L204.399 0.751363L204.832 0Z" fill="white"/>
<path d="M307.201 0.40351L306.967 0H204.031L203.799 0.40351H307.201Z" fill="white"/>
<path d="M272.467 0H272.261L272.314 0.0904419L272.467 0Z" fill="white"/>
<path d="M307.032 0H306.166L306.599 0.751363L307.032 0Z" fill="white"/>
<path d="M409.401 0.40351L409.168 0H306.231L305.997 0.40351H409.401Z" fill="white"/>
<path d="M374.667 0H374.461L374.514 0.0904419L374.667 0Z" fill="white"/>
<path d="M409.232 0H408.367L408.8 0.751363L409.232 0Z" fill="white"/>
<path d="M510.998 0.40351V0H408.429L408.198 0.40351H510.998Z" fill="white"/>
<path d="M476.868 0H476.662L476.715 0.0904419L476.868 0Z" fill="white"/>
<path d="M510.998 0.751363V0H510.565L510.998 0.751363Z" fill="white"/>
<path d="M510.998 0.40351V0H510.63L510.398 0.40351H510.998Z" fill="white"/>
<path d="M510.567 0L510.998 0.751363V0H510.567Z" fill="white"/>
<path d="M510.998 89.0574V88.3617H460.499L510.998 0.751363V0H510.63L459.298 89.0574H510.998Z" fill="white"/>
<path d="M495.22 88.2388L495.829 88.5774L510.998 61.257V59.8261L495.22 88.2388Z" fill="white"/>
<path d="M493.669 29.7878L510.998 58.2956V56.9575L494.261 29.4261L493.669 29.7878Z" fill="white"/>
<path d="M493.967 29.2591H459.9V29.9548H493.967V29.2591Z" fill="white"/>
<path d="M510.998 0.751363V0H408.364L459.897 89.4053L510.998 0.751363ZM510.398 0.40351L459.9 88.0162L409.401 0.40351H510.398Z" fill="white"/>
<path d="M443.085 59.193L442.485 58.8429L459.539 29.6394V29.5745L442.485 0.371044L443.085 0.0208712L460.233 29.3843V29.8296L443.085 59.193Z" fill="white"/>
<path d="M460.499 89.0574L409.168 0H408.429L357.097 89.0574H460.499ZM459.298 88.3617H358.301L408.8 0.751363L459.298 88.364V88.3617Z" fill="white"/>
<path d="M393.628 88.5774L393.022 88.2388L409.244 59.0261L391.468 29.7878L392.063 29.4261L410.047 59.0098L393.628 88.5774Z" fill="white"/>
<path d="M442.784 58.6689H409.645V59.3647H442.784V58.6689Z" fill="white"/>
<path d="M391.767 29.2591H357.699V29.9548H391.767V29.2591Z" fill="white"/>
<path d="M409.232 0H306.166L357.699 89.4053L409.232 0ZM408.198 0.40351L357.699 88.0162L307.201 0.40351H408.198Z" fill="white"/>
<path d="M340.884 59.193L340.285 58.8429L357.34 29.6394V29.5745L340.285 0.371044L340.884 0.0208712L358.035 29.3843V29.8296L340.884 59.193Z" fill="white"/>
<path d="M358.301 89.0574L306.967 0H306.229L254.897 89.0574H358.301ZM357.097 88.3617H256.101L306.599 0.751363L357.097 88.364V88.3617Z" fill="white"/>
<path d="M291.428 88.5774L290.821 88.2388L307.044 59.0261L289.27 29.7878L289.863 29.4261L307.847 59.0098L291.428 88.5774Z" fill="white"/>
<path d="M340.586 58.6689H307.446V59.3647H340.586V58.6689Z" fill="white"/>
<path d="M289.566 29.2591H255.499V29.9548H289.566V29.2591Z" fill="white"/>
<path d="M307.032 0H203.966L255.499 89.4053L307.032 0ZM305.997 0.40351L255.499 88.0162L205.001 0.40351H305.997Z" fill="white"/>
<path d="M238.684 59.193L238.084 58.8429L255.14 29.6394V29.5745L238.084 0.371044L238.684 0.0208712L255.835 29.3843V29.8296L238.684 59.193Z" fill="white"/>
<path d="M256.101 89.0574L204.769 0H204.031L152.699 89.0574H256.101ZM254.897 88.3617H153.9L204.399 0.751363L254.897 88.364V88.3617Z" fill="white"/>
<path d="M189.227 88.5774L188.621 88.2388L204.843 59.0261L187.07 29.7878L187.662 29.4261L205.646 59.0098L189.227 88.5774Z" fill="white"/>
<path d="M238.385 58.6689H205.246V59.3647H238.385V58.6689Z" fill="white"/>
<path d="M187.368 29.2591H153.301V29.9548H187.368V29.2591Z" fill="white"/>
<path d="M204.832 0H101.765L153.298 89.4053L204.832 0ZM203.799 0.40351L153.301 88.0162L102.8 0.40351H203.799Z" fill="white"/>
<path d="M136.486 59.193L135.886 58.8429L152.94 29.6394V29.5745L135.886 0.371044L136.486 0.0208712L153.634 29.3843V29.8296L136.486 59.193Z" fill="white"/>
<path d="M153.9 89.0574L102.569 0H101.83L50.4983 89.0574H153.9ZM152.699 88.3617H51.7022L102.2 0.751363L152.699 88.364V88.3617Z" fill="white"/>
<path d="M87.0292 88.5774L86.4226 88.2388L102.645 59.0261L84.8692 29.7878L85.4642 29.4261L103.448 59.0098L87.0292 88.5774Z" fill="white"/>
<path d="M136.185 58.6689H103.045V59.3647H136.185V58.6689Z" fill="white"/>
<path d="M85.1678 29.2591H51.1002V29.9548H85.1678V29.2591Z" fill="white"/>
<path d="M102.633 0H0V0.751363L51.1002 89.4076L102.633 0ZM101.599 0.40351L51.1002 88.0162L0.601942 0.40351H101.599Z" fill="white"/>
<path d="M34.2852 59.193L33.6856 58.8429L50.7414 29.6394V29.5745L33.6856 0.371044L34.2852 0.0208712L51.4359 29.3843V29.8296L34.2852 59.193Z" fill="white"/>
<path d="M0.368111 0H0V0.751363L50.4983 88.3617H0V89.0574H51.7022L0.368111 0Z" fill="white"/>
<path d="M0 56.9575V58.2956L0.444511 59.0261L0 59.8261V61.257L1.24787 59.0098L0 56.9575Z" fill="white"/>
<path d="M33.9842 58.6689H0.845034V59.3647H33.9842V58.6689Z" fill="white"/>
<path d="M0 0V0.751363L0.432935 0H0Z" fill="white"/>
<path d="M0 176.67V177.714H0.601942L0 176.67Z" fill="white"/>
<path d="M51.7022 88.3617H0V89.0574H50.4983L0 176.67V178.062L51.7022 88.3617Z" fill="white"/>
<path d="M17.329 147.634L0 119.126V120.464L16.7363 147.995L17.329 147.634Z" fill="white"/>
<path d="M15.7778 89.1826L15.1712 88.8441L0 116.164V117.595L15.7778 89.1826Z" fill="white"/>
<path d="M51.1002 147.467H17.0326V148.162H51.1002V147.467Z" fill="white"/>
<path d="M51.1002 88.0139L0 176.67V177.714H102.8L51.0979 88.0139H51.1002ZM51.1002 89.4053L101.599 177.018H0.601942L51.1002 89.4053Z" fill="white"/>
<path d="M67.9152 177.401L50.7645 148.037V147.592L67.9152 118.228L68.5149 118.579L51.4591 147.78V147.847L68.5149 177.048L67.9152 177.401Z" fill="white"/>
<path d="M102.2 178.062L50.4983 88.3617H153.9L102.198 178.062H102.2ZM51.7022 89.0574L102.2 176.67L152.699 89.0574H51.7022Z" fill="white"/>
<path d="M118.937 147.995L100.953 118.412L117.372 88.8441L117.978 89.1826L101.756 118.395L119.529 147.634L118.937 147.995Z" fill="white"/>
<path d="M101.353 118.054H68.2139V118.75H101.353V118.054Z" fill="white"/>
<path d="M153.301 147.467H119.233V148.162H153.301V147.467Z" fill="white"/>
<path d="M205.001 177.714H101.599L153.301 88.0139L205.003 177.714H205.001ZM102.8 177.018H203.797L153.298 89.4053L102.8 177.018Z" fill="white"/>
<path d="M170.113 177.401L152.965 148.037V147.592L170.113 118.228L170.713 118.579L153.66 147.78V147.847L170.713 177.048L170.113 177.401Z" fill="white"/>
<path d="M204.399 178.062L152.696 88.3617H256.098L204.396 178.062H204.399ZM153.9 89.0574L204.399 176.67L254.897 89.0574H153.9Z" fill="white"/>
<path d="M221.137 147.995L203.151 118.412L219.57 88.8441L220.176 89.1826L203.954 118.395L221.73 147.634L221.137 147.995Z" fill="white"/>
<path d="M203.554 118.054H170.414V118.75H203.554V118.054Z" fill="white"/>
<path d="M255.501 147.467H221.434V148.162H255.501V147.467Z" fill="white"/>
<path d="M307.201 177.714H203.799L255.501 88.0139L307.203 177.714H307.201ZM205.001 177.018H305.997L255.499 89.4053L205.001 177.018Z" fill="white"/>
<path d="M272.314 177.401L255.163 148.037V147.592L272.314 118.228L272.913 118.579L255.858 147.78V147.847L272.913 177.048L272.314 177.401Z" fill="white"/>
<path d="M306.599 178.062L254.897 88.3617H358.299L306.597 178.062H306.599ZM256.101 89.0574L306.599 176.67L357.097 89.0574H256.101Z" fill="white"/>
<path d="M323.335 147.995L305.351 118.412L321.77 88.8441L322.377 89.1826L306.155 118.395L323.928 147.634L323.335 147.995Z" fill="white"/>
<path d="M305.754 118.054H272.615V118.75H305.754V118.054Z" fill="white"/>
<path d="M357.699 147.467H323.632V148.162H357.699V147.467Z" fill="white"/>
<path d="M409.401 177.714H305.999L357.702 88.0139L409.404 177.714H409.401ZM307.201 177.018H408.198L357.699 89.4053L307.201 177.018Z" fill="white"/>
<path d="M374.514 177.401L357.364 148.037V147.592L374.514 118.228L375.114 118.579L358.058 147.78V147.847L375.114 177.048L374.514 177.401Z" fill="white"/>
<path d="M408.8 178.062L357.097 88.3617H460.499L408.797 178.062H408.8ZM358.301 89.0574L408.8 176.67L459.298 89.0574H358.301Z" fill="white"/>
<path d="M425.536 147.995L407.552 118.412L423.971 88.8441L424.577 89.1826L408.355 118.395L426.129 147.634L425.536 147.995Z" fill="white"/>
<path d="M407.952 118.054H374.813V118.75H407.952V118.054Z" fill="white"/>
<path d="M459.9 147.467H425.832V148.162H459.9V147.467Z" fill="white"/>
<path d="M408.198 177.714H510.998V176.67L459.897 88.0139L408.195 177.714H408.198ZM409.401 177.018L459.9 89.4053L510.398 177.018H409.401Z" fill="white"/>
<path d="M476.715 177.401L459.564 148.037V147.592L476.715 118.228L477.314 118.579L460.259 147.78V147.847L477.314 177.048L476.715 177.401Z" fill="white"/>
<path d="M510.998 178.062V176.67L460.499 89.0574H510.998V88.3617H459.298L510.998 178.062Z" fill="white"/>
<path d="M510.553 118.395L510.998 117.595V116.164L509.75 118.412L510.998 120.464V119.126L510.553 118.395Z" fill="white"/>
<path d="M510.153 118.054H477.013V118.75H510.153V118.054Z" fill="white"/>
<path d="M510.998 177.714V176.67L510.398 177.714H510.998Z" fill="white"/>
<path d="M510.398 177.018L510.998 178.062V177.018H510.398Z" fill="white"/>
<path d="M459.298 266.37H510.998V265.674H460.499L510.998 178.062V176.67L459.298 266.37Z" fill="white"/>
<path d="M495.22 265.549L495.829 265.888L510.998 238.567V237.136L495.22 265.549Z" fill="white"/>
<path d="M493.669 207.098L510.998 235.606V234.268L494.261 206.736L493.669 207.098Z" fill="white"/>
<path d="M493.967 206.569H459.9V207.265H493.967V206.569Z" fill="white"/>
<path d="M459.9 266.718L511 178.062V177.018H408.2L459.902 266.718H459.9ZM459.9 265.326L409.401 177.714H510.398L459.9 265.326Z" fill="white"/>
<path d="M443.085 236.503L442.485 236.153L459.539 206.952V206.885L442.485 177.684L443.085 177.331L460.233 206.694V207.14L443.085 236.503Z" fill="white"/>
<path d="M460.499 266.37H357.097L408.8 176.67L460.502 266.37H460.499ZM358.301 265.674H459.298L408.8 178.062L358.301 265.674Z" fill="white"/>
<path d="M393.628 265.888L393.022 265.549L409.244 236.336L391.468 207.098L392.063 206.736L410.047 236.32L393.628 265.888Z" fill="white"/>
<path d="M442.784 235.979H409.645V236.675H442.784V235.979Z" fill="white"/>
<path d="M391.767 206.569H357.699V207.265H391.767V206.569Z" fill="white"/>
<path d="M357.699 266.718L305.997 177.018H409.399L357.697 266.718H357.699ZM307.201 177.714L357.699 265.326L408.198 177.714H307.201Z" fill="white"/>
<path d="M340.884 236.503L340.285 236.153L357.34 206.952V206.885L340.285 177.684L340.884 177.331L358.035 206.694V207.14L340.884 236.503Z" fill="white"/>
<path d="M358.301 266.37H254.899L306.601 176.67L358.304 266.37H358.301ZM256.101 265.674H357.097L306.599 178.062L256.101 265.674Z" fill="white"/>
<path d="M291.428 265.888L290.821 265.549L307.044 236.336L289.27 207.098L289.863 206.736L307.847 236.32L291.428 265.888Z" fill="white"/>
<path d="M340.586 235.979H307.446V236.675H340.586V235.979Z" fill="white"/>
<path d="M289.566 206.569H255.499V207.265H289.566V206.569Z" fill="white"/>
<path d="M255.499 266.718L203.797 177.018H307.199L255.497 266.718H255.499ZM205.001 177.714L255.499 265.326L305.997 177.714H205.001Z" fill="white"/>
<path d="M238.684 236.503L238.084 236.153L255.14 206.952V206.885L238.084 177.684L238.684 177.331L255.835 206.694V207.14L238.684 236.503Z" fill="white"/>
<path d="M256.101 266.37H152.699L204.401 176.67L256.103 266.37H256.101ZM153.9 265.674H254.897L204.399 178.062L153.9 265.674Z" fill="white"/>
<path d="M189.227 265.888L188.621 265.549L204.843 236.336L187.07 207.098L187.662 206.736L205.646 236.32L189.227 265.888Z" fill="white"/>
<path d="M238.385 235.979H205.246V236.675H238.385V235.979Z" fill="white"/>
<path d="M187.368 206.569H153.301V207.265H187.368V206.569Z" fill="white"/>
<path d="M153.301 266.718L101.599 177.018H205.001L153.298 266.718H153.301ZM102.8 177.714L153.298 265.326L203.797 177.714H102.8Z" fill="white"/>
<path d="M136.486 236.503L135.886 236.153L152.94 206.952V206.885L135.886 177.684L136.486 177.331L153.634 206.694V207.14L136.486 236.503Z" fill="white"/>
<path d="M153.9 266.37H50.4983L102.2 176.67L153.903 266.37H153.9ZM51.7022 265.674H152.699L102.2 178.062L51.7022 265.674Z" fill="white"/>
<path d="M87.0292 265.888L86.4226 265.549L102.645 236.336L84.8692 207.098L85.4642 206.736L103.448 236.32L87.0292 265.888Z" fill="white"/>
<path d="M136.185 235.979H103.045V236.675H136.185V235.979Z" fill="white"/>
<path d="M85.1678 206.569H51.1002V207.265H85.1678V206.569Z" fill="white"/>
<path d="M102.8 177.018H0V178.062L51.1002 266.718L102.802 177.018H102.8ZM101.599 177.714L51.1002 265.326L0.601942 177.714H101.599Z" fill="white"/>
<path d="M34.2852 236.503L33.6856 236.153L50.7414 206.952V206.885L33.6856 177.684L34.2852 177.331L51.4359 206.694V207.14L34.2852 236.503Z" fill="white"/>
<path d="M0 176.67V178.062L50.4983 265.674H0V266.37H51.7022L0 176.67Z" fill="white"/>
<path d="M0 234.268V235.606L0.444511 236.336L0 237.136V238.567L1.24787 236.32L0 234.268Z" fill="white"/>
<path d="M33.9842 235.979H0.845034V236.675H33.9842V235.979Z" fill="white"/>
<path d="M0 177.018V178.062L0.601942 177.018H0Z" fill="white"/>
<path d="M0 353.98V355.024H0.601942L0 353.98Z" fill="white"/>
<path d="M51.7022 265.674H0V266.37H50.4983L0 353.98V355.372L51.7022 265.674Z" fill="white"/>
<path d="M15.7778 266.493L15.1712 266.154L0 293.475V294.905L15.7778 266.493Z" fill="white"/>
<path d="M17.329 324.944L0 296.436V297.774L16.7363 325.306L17.329 324.944Z" fill="white"/>
<path d="M51.1002 324.777H17.0326V325.472H51.1002V324.777Z" fill="white"/>
<path d="M51.1002 265.326L0 353.98V355.024H102.8L51.0979 265.324L51.1002 265.326ZM51.1002 266.718L101.599 354.33H0.601942L51.1002 266.718Z" fill="white"/>
<path d="M67.9152 354.711L50.7645 325.347V324.902L50.8108 324.821L67.9152 295.539L68.5149 295.889L51.4591 325.09V325.157L68.5149 354.358L67.9152 354.711Z" fill="white"/>
<path d="M102.2 355.372L50.4983 265.672H153.9L102.198 355.372H102.2ZM51.7022 266.37L102.2 353.983L152.699 266.37H51.7022Z" fill="white"/>
<path d="M118.937 325.306L100.953 295.722L101.05 295.545L117.372 266.154L117.978 266.493L101.756 295.706L119.529 324.944L118.937 325.306Z" fill="white"/>
<path d="M101.353 295.367H68.2139V296.063H101.353V295.367Z" fill="white"/>
<path d="M153.301 324.777H119.233V325.472H153.301V324.777Z" fill="white"/>
<path d="M205.001 355.024H101.599L153.301 265.324L205.003 355.024H205.001ZM102.8 354.328H203.797L153.298 266.715L102.8 354.328Z" fill="white"/>
<path d="M170.113 354.711L152.965 325.347V324.902L153.011 324.821L170.113 295.539L170.713 295.889L153.66 325.09V325.157L170.713 354.358L170.113 354.711Z" fill="white"/>
<path d="M204.399 355.372L152.696 265.672H256.098L204.396 355.372H204.399ZM153.9 266.37L204.399 353.983L254.897 266.37H153.9Z" fill="white"/>
<path d="M221.137 325.306L203.151 295.722L203.25 295.545L219.57 266.154L220.176 266.493L203.954 295.706L221.73 324.944L221.137 325.306Z" fill="white"/>
<path d="M203.554 295.367H170.414V296.063H203.554V295.367Z" fill="white"/>
<path d="M255.501 324.777H221.434V325.472H255.501V324.777Z" fill="white"/>
<path d="M307.201 355.024H203.799L255.501 265.324L307.203 355.024H307.201ZM205.001 354.328H305.997L255.499 266.715L205.001 354.328Z" fill="white"/>
<path d="M272.314 354.711L255.163 325.347V324.902L255.212 324.821L272.314 295.539L272.913 295.889L255.858 325.09V325.157L272.913 354.358L272.314 354.711Z" fill="white"/>
<path d="M306.599 355.372L254.897 265.672H358.299L306.597 355.372H306.599ZM256.101 266.37L306.599 353.983L357.097 266.37H256.101Z" fill="white"/>
<path d="M323.335 325.306L305.351 295.722L321.77 266.154L322.377 266.493L306.155 295.706L323.928 324.944L323.335 325.306Z" fill="white"/>
<path d="M305.754 295.367H272.615V296.063H305.754V295.367Z" fill="white"/>
<path d="M357.699 324.777H323.632V325.472H357.699V324.777Z" fill="white"/>
<path d="M305.999 355.024L357.702 265.324L409.404 355.024H305.999ZM307.201 354.328H408.198L357.699 266.715L307.201 354.328Z" fill="white"/>
<path d="M374.514 354.711L357.364 325.347V324.902L357.412 324.821L374.514 295.539L375.114 295.889L358.058 325.09V325.157L375.114 354.358L374.514 354.711Z" fill="white"/>
<path d="M408.8 355.372L357.097 265.672H460.499L408.797 355.372H408.8ZM358.301 266.37L408.8 353.983L459.298 266.37H358.301Z" fill="white"/>
<path d="M425.536 325.306L407.552 295.722L423.971 266.154L424.577 266.493L408.355 295.706L426.129 324.944L425.536 325.306Z" fill="white"/>
<path d="M407.952 295.367H374.813V296.063H407.952V295.367Z" fill="white"/>
<path d="M459.9 324.777H425.832V325.472H459.9V324.777Z" fill="white"/>
<path d="M408.198 355.024H510.998V353.98L459.897 265.324L408.195 355.024H408.198ZM409.401 354.328L459.9 266.715L510.398 354.328H409.401Z" fill="white"/>
<path d="M476.715 354.711L459.564 325.347V324.902L459.61 324.821L476.715 295.539L477.314 295.889L460.259 325.09V325.157L477.314 354.358L476.715 354.711Z" fill="white"/>
<path d="M510.998 355.372V353.98L460.499 266.37H510.998V265.674H459.298L510.998 355.372Z" fill="white"/>
<path d="M510.553 295.706L510.998 294.905V293.475L509.75 295.722L510.998 297.774V296.436L510.553 295.706Z" fill="white"/>
<path d="M510.153 295.367H477.013V296.063H510.153V295.367Z" fill="white"/>
<path d="M510.998 355.024V353.98L510.398 355.024H510.998Z" fill="white"/>
<path d="M510.398 354.328L510.998 355.372V354.328H510.398Z" fill="white"/>
<path d="M459.298 443.68H510.998V442.984H460.499L510.998 355.372V353.98L459.298 443.68Z" fill="white"/>
<path d="M495.22 442.859L495.829 443.198L510.998 415.877V414.446L495.22 442.859Z" fill="white"/>
<path d="M493.669 384.408L510.998 412.916V411.578L494.261 384.046L493.669 384.408Z" fill="white"/>
<path d="M493.967 383.879H459.9V384.575H493.967V383.879Z" fill="white"/>
<path d="M459.9 444.028L511 355.372V354.328H408.2L459.902 444.026L459.9 444.028ZM459.9 442.636L409.401 355.026H510.398L459.9 442.636Z" fill="white"/>
<path d="M443.085 413.813L442.485 413.463L459.539 384.262V384.195L442.485 354.994L443.085 354.641L460.233 384.005V384.45L460.187 384.531L443.085 413.813Z" fill="white"/>
<path d="M460.499 443.68H357.097L408.8 353.983L460.502 443.68H460.499ZM358.301 442.984H459.298L408.8 355.374L358.301 442.984Z" fill="white"/>
<path d="M393.628 443.198L393.022 442.859L409.244 413.646L391.468 384.408L392.063 384.046L410.047 413.63L393.628 443.198Z" fill="white"/>
<path d="M442.784 413.292H409.645V413.987H442.784V413.292Z" fill="white"/>
<path d="M391.767 383.879H357.699V384.575H391.767V383.879Z" fill="white"/>
<path d="M357.699 444.028L305.997 354.33H409.399L357.697 444.028H357.699ZM307.201 355.024L357.699 442.634L408.198 355.024H307.201Z" fill="white"/>
<path d="M340.884 413.813L340.285 413.463L357.34 384.262V384.195L340.285 354.994L340.884 354.641L358.035 384.005V384.45L357.986 384.531L340.884 413.813Z" fill="white"/>
<path d="M358.301 443.68H254.899L306.601 353.983L358.304 443.68H358.301ZM256.101 442.984H357.097L306.599 355.374L256.101 442.984Z" fill="white"/>
<path d="M291.428 443.198L290.821 442.859L307.044 413.646L289.27 384.408L289.863 384.046L307.847 413.63L291.428 443.198Z" fill="white"/>
<path d="M340.586 413.292H307.446V413.987H340.586V413.292Z" fill="white"/>
<path d="M289.566 383.879H255.499V384.575H289.566V383.879Z" fill="white"/>
<path d="M255.499 444.028L203.797 354.33H307.199L255.497 444.028H255.499ZM205.001 355.024L255.499 442.634L305.997 355.024H205.001Z" fill="white"/>
<path d="M238.684 413.813L238.084 413.463L255.14 384.262V384.195L238.084 354.994L238.684 354.641L255.835 384.005V384.45L255.788 384.531L238.684 413.813Z" fill="white"/>
<path d="M256.101 443.68H152.699L204.401 353.983L256.103 443.68H256.101ZM153.9 442.984H254.897L204.399 355.374L153.9 442.984Z" fill="white"/>
<path d="M189.227 443.198L188.621 442.859L204.843 413.646L187.07 384.408L187.662 384.046L205.646 413.63L189.227 443.198Z" fill="white"/>
<path d="M238.385 413.292H205.246V413.987H238.385V413.292Z" fill="white"/>
<path d="M187.368 383.879H153.301V384.575H187.368V383.879Z" fill="white"/>
<path d="M153.301 444.028L101.599 354.33H205.001L153.298 444.028H153.301ZM102.8 355.024L153.298 442.634L203.797 355.024H102.8Z" fill="white"/>
<path d="M136.486 413.813L135.886 413.463L152.94 384.262V384.195L135.886 354.994L136.486 354.641L153.634 384.005V384.45L153.588 384.531L136.486 413.813Z" fill="white"/>
<path d="M153.9 443.68H50.4983L102.2 353.983L153.903 443.68H153.9ZM51.7022 442.984H152.699L102.2 355.374L51.7022 442.984Z" fill="white"/>
<path d="M87.0292 443.198L86.4226 442.859L102.645 413.646L84.8692 384.408L85.4642 384.046L103.448 413.63L103.349 413.809L87.0292 443.198Z" fill="white"/>
<path d="M136.185 413.292H103.045V413.987H136.185V413.292Z" fill="white"/>
<path d="M85.1678 383.879H51.1002V384.575H85.1678V383.879Z" fill="white"/>
<path d="M102.8 354.328H0V355.372L51.1002 444.028L102.802 354.33L102.8 354.328ZM101.599 355.024L51.1002 442.634L0.601942 355.024H101.599Z" fill="white"/>
<path d="M34.2852 413.813L33.6856 413.463L50.7414 384.262V384.195L33.6856 354.994L34.2852 354.641L51.4359 384.005V384.45L51.3873 384.531L34.2852 413.813Z" fill="white"/>
<path d="M0 353.98V355.372L50.4983 442.984H0V443.68H51.7022L0 353.98Z" fill="white"/>
<path d="M1.24787 413.63L0 411.578V412.916L0.444511 413.646L0 414.446V415.877L1.15063 413.809L1.24787 413.63Z" fill="white"/>
<path d="M33.9842 413.292H0.845034V413.987H33.9842V413.292Z" fill="white"/>
<path d="M0 354.328V355.372L0.601942 354.328H0Z" fill="white"/>
<path d="M0 531.998H0.407468L0 531.29V531.998Z" fill="white"/>
<path d="M0 442.984V443.68H50.4983L0 531.29V531.998H0.393577L51.7022 442.984H0Z" fill="white"/>
<path d="M17.329 502.254L0 473.748V475.084L16.7363 502.616L17.329 502.254Z" fill="white"/>
<path d="M15.7778 443.803L15.1712 443.464L0 470.785V472.216L15.7778 443.803Z" fill="white"/>
<path d="M51.1002 502.087H17.0326V502.783H51.1002V502.087Z" fill="white"/>
<path d="M0 531.29V531.998H102.608L51.1002 442.634L0 531.29ZM0.601942 531.638L51.1002 444.026L101.599 531.638H0.601942Z" fill="white"/>
<path d="M51.4591 502.467V502.4L68.5149 473.199L67.9152 472.849L50.8108 502.131L50.7645 502.212V502.657L67.9014 531.998H67.9546L68.5149 531.671L51.4591 502.467Z" fill="white"/>
<path d="M50.4983 442.984L101.805 532H102.594L153.9 442.984H50.4983ZM51.7022 443.68H152.699L102.2 531.293L51.7022 443.68Z" fill="white"/>
<path d="M118.937 502.616L100.953 473.032L101.05 472.856L117.372 443.464L117.978 443.803L101.756 473.016L119.529 502.254L118.937 502.616Z" fill="white"/>
<path d="M101.353 472.677H68.2139V473.373H101.353V472.677Z" fill="white"/>
<path d="M153.301 502.087H119.233V502.783H153.301V502.087Z" fill="white"/>
<path d="M101.793 531.998H204.808L153.301 442.634L101.793 531.998ZM102.8 531.638L153.298 444.026L203.797 531.638H102.8Z" fill="white"/>
<path d="M153.66 502.467V502.4L170.713 473.199L170.113 472.849L153.011 502.131L152.965 502.212V502.657L170.102 531.998H170.153L170.713 531.671L153.66 502.467Z" fill="white"/>
<path d="M152.699 442.984L204.005 532H204.795L256.101 442.984H152.699ZM153.9 443.68H254.897L204.399 531.293L153.9 443.68Z" fill="white"/>
<path d="M221.137 502.616L203.151 473.032L203.25 472.856L219.57 443.464L220.176 443.803L203.954 473.016L221.73 502.254L221.137 502.616Z" fill="white"/>
<path d="M203.554 472.677H170.414V473.373H203.554V472.677Z" fill="white"/>
<path d="M255.501 502.087H221.434V502.783H255.501V502.087Z" fill="white"/>
<path d="M203.991 531.998H307.007L255.499 442.634L203.991 531.998ZM205.001 531.638L255.499 444.026L305.997 531.638H205.001Z" fill="white"/>
<path d="M255.858 502.467V502.4L272.913 473.199L272.314 472.849L255.212 502.131L255.163 502.212V502.657L272.3 531.998H272.353L272.913 531.671L255.858 502.467Z" fill="white"/>
<path d="M254.897 442.984L306.203 532H306.993L358.299 442.984H254.897ZM256.101 443.68H357.097L306.599 531.293L256.101 443.68Z" fill="white"/>
<path d="M323.335 502.616L305.351 473.032L321.77 443.464L322.377 443.803L306.155 473.016L323.928 502.254L323.335 502.616Z" fill="white"/>
<path d="M305.754 472.677H272.615V473.373H305.754V472.677Z" fill="white"/>
<path d="M357.699 502.087H323.632V502.783H357.699V502.087Z" fill="white"/>
<path d="M306.192 531.998H409.207L357.699 442.634L306.192 531.998ZM307.201 531.638L357.699 444.026L408.198 531.638H307.201Z" fill="white"/>
<path d="M358.058 502.467V502.4L375.114 473.199L374.514 472.849L357.412 502.131L357.364 502.212V502.657L374.5 531.998H374.554L375.114 531.671L358.058 502.467Z" fill="white"/>
<path d="M357.097 442.984L408.404 532H409.193L460.499 442.984H357.097ZM358.301 443.68H459.298L408.8 531.293L358.301 443.68Z" fill="white"/>
<path d="M425.536 502.616L407.552 473.032L423.971 443.464L424.577 443.803L408.355 473.016L426.129 502.254L425.536 502.616Z" fill="white"/>
<path d="M407.952 472.677H374.813V473.373H407.952V472.677Z" fill="white"/>
<path d="M459.9 502.087H425.832V502.783H459.9V502.087Z" fill="white"/>
<path d="M510.998 531.29L459.897 442.634L408.39 531.998H510.998V531.29ZM409.401 531.638L459.9 444.026L510.398 531.638H409.401Z" fill="white"/>
<path d="M460.259 502.467V502.4L477.314 473.199L476.715 472.849L459.61 502.131L459.564 502.212V502.657L476.701 531.998H476.752L477.314 531.671L460.259 502.467Z" fill="white"/>
<path d="M510.998 531.29L460.499 443.68H510.998V442.984H459.298L510.604 531.998H510.998V531.29Z" fill="white"/>
<path d="M510.553 473.016L510.998 472.216V470.785L509.75 473.032L510.998 475.084V473.748L510.553 473.016Z" fill="white"/>
<path d="M510.153 472.677H477.013V473.373H510.153V472.677Z" fill="white"/>
<path d="M510.998 531.29L510.59 531.998H510.998V531.29Z" fill="white"/>
<path d="M510.998 531.638H510.398L510.604 531.998H510.998V531.638Z" fill="white"/>
<path d="M510.998 531.29L510.59 531.998H510.998V531.29Z" fill="white"/>
<path d="M510.998 531.638H408.198L408.406 531.998H510.998V531.638Z" fill="white"/>
<path d="M443.004 531.998H443.11L443.085 531.951L443.004 531.998Z" fill="white"/>
<path d="M408.392 531.998H409.207L408.8 531.29L408.392 531.998Z" fill="white"/>
<path d="M305.997 531.638L306.205 531.998H409.193L409.401 531.638H305.997Z" fill="white"/>
<path d="M340.806 531.998H340.912L340.884 531.951L340.806 531.998Z" fill="white"/>
<path d="M306.192 531.998H307.007L306.599 531.29L306.192 531.998Z" fill="white"/>
<path d="M203.799 531.638L204.005 531.998H306.993L307.201 531.638H203.799Z" fill="white"/>
<path d="M238.605 531.998H238.712L238.684 531.951L238.605 531.998Z" fill="white"/>
<path d="M203.991 531.998H204.808L204.399 531.29L203.991 531.998Z" fill="white"/>
<path d="M101.599 531.638L101.805 531.998H204.795L205.001 531.638H101.599Z" fill="white"/>
<path d="M136.405 531.998H136.511L136.486 531.951L136.405 531.998Z" fill="white"/>
<path d="M101.793 531.998H102.608L102.2 531.29L101.793 531.998Z" fill="white"/>
<path d="M0 531.638V531.998H102.594L102.8 531.638H0Z" fill="white"/>
<path d="M34.2065 531.998H34.313L34.2852 531.951L34.2065 531.998Z" fill="white"/>
<path d="M0 531.29V531.998H0.407468L0 531.29Z" fill="white"/>
<path d="M0 531.638V531.998H0.393577L0.601942 531.638H0Z" fill="white"/>
</svg>
